<?xml version="1.0" encoding="utf-8"?>
<!-- Generator: Adobe Illustrator 21.0.0, SVG Export Plug-In . SVG Version: 6.00 Build 0)  -->
<svg version="1.1" id="logo_1_" xmlns="http://www.w3.org/2000/svg" xmlns:xlink="http://www.w3.org/1999/xlink" x="0px" y="0px"
	 viewBox="0 0 286 187" style="enable-background:new 0 0 286 187;" xml:space="preserve">
<style type="text/css">
	.st0{fill-rule:evenodd;clip-rule:evenodd;fill:#FFFFFF;}
	.st1{fill:#FFFFFF;}
</style>
<g id="Shape_1_copy_4">
	<g>
		<path class="st0" d="M237.9,0.8H220l-5.7,5.6l-5.7-5.6h-17.9l23.6,23.5L237.9,0.8z M186.7,14.6L159,42.2l-19.7-19.7l3.9,21.7
			L159,60.1l27.7-27.6l27.7,27.6l15.8-15.8l3.9-21.7l-19.7,19.7L186.7,14.6z M182.6,0.8h-17.9L159,6.5l-5.7-5.6h-17.9v0L159,24.4
			L182.6,0.8z M127,117.8l-27.7,27.6l-27.7-27.6l-20,19.9L48.1,158h102.5l-3.6-20.2L127,117.8z M99.3,127.6L127,100l16.1,16.1
			l-11.7-65.6l0,0v-0.1l-8.8-49.4L99.3,82.4L76.1,0.8L55.6,116L71.7,100L99.3,127.6z M186.7,50.4L159,78l-12-11.9l16.4,91.9h46.5
			l16.4-91.9l-12,11.9L186.7,50.4z"/>
	</g>
</g>
<g id="MoviewooD">
	<g>
		<path class="st1" d="M40.1,153.8v33.6h-3.4v-26.9l-13.2,22.6h-1.7L8.6,160.7v26.7H5.2v-33.6h2.9l14.6,24.9l14.4-24.9H40.1z"/>
		<path class="st1" d="M54.1,186c-2-1.1-3.5-2.6-4.6-4.6c-1.1-2-1.7-4.2-1.7-6.6c0-2.5,0.6-4.7,1.7-6.6c1.1-2,2.7-3.5,4.6-4.6
			c2-1.1,4.1-1.6,6.6-1.6c2.4,0,4.6,0.5,6.6,1.6c2,1.1,3.5,2.6,4.6,4.6c1.1,2,1.7,4.2,1.7,6.6c0,2.5-0.6,4.7-1.7,6.6
			c-1.1,2-2.6,3.5-4.6,4.6c-2,1.1-4.1,1.7-6.6,1.7C58.2,187.6,56,187.1,54.1,186z M65.5,183.4c1.4-0.8,2.5-2,3.3-3.5
			c0.8-1.5,1.2-3.2,1.2-5.1s-0.4-3.6-1.2-5.1c-0.8-1.5-1.9-2.7-3.3-3.5c-1.4-0.8-3-1.2-4.8-1.2c-1.8,0-3.4,0.4-4.8,1.2
			c-1.4,0.8-2.5,2-3.4,3.5c-0.8,1.5-1.2,3.2-1.2,5.1s0.4,3.6,1.2,5.1c0.8,1.5,1.9,2.7,3.4,3.5c1.4,0.8,3,1.2,4.8,1.2
			C62.4,184.6,64.1,184.2,65.5,183.4z"/>
		<path class="st1" d="M100.9,162.1l-11.2,25.2h-3.5L75,162.1h3.6l9.5,21.5l9.6-21.5H100.9z"/>
		<path class="st1" d="M105.7,155.9c-0.5-0.5-0.7-1.1-0.7-1.7c0-0.6,0.2-1.2,0.7-1.7c0.5-0.5,1.1-0.7,1.8-0.7c0.7,0,1.3,0.2,1.8,0.7
			s0.7,1,0.7,1.7c0,0.7-0.2,1.3-0.7,1.8c-0.5,0.5-1.1,0.7-1.8,0.7C106.7,156.6,106.2,156.4,105.7,155.9z M105.7,162.1h3.4v25.2h-3.4
			V162.1z"/>
		<path class="st1" d="M140.6,175.8h-21.1c0.2,2.6,1.2,4.7,3,6.4c1.8,1.6,4.1,2.4,6.9,2.4c1.6,0,3-0.3,4.3-0.8
			c1.3-0.6,2.4-1.4,3.4-2.5l1.9,2.2c-1.1,1.3-2.5,2.4-4.2,3.1c-1.7,0.7-3.5,1.1-5.5,1.1c-2.6,0-4.9-0.6-6.9-1.7
			c-2-1.1-3.6-2.6-4.7-4.6c-1.1-2-1.7-4.2-1.7-6.6c0-2.5,0.5-4.7,1.6-6.6c1.1-2,2.5-3.5,4.4-4.6c1.9-1.1,4-1.6,6.3-1.6
			c2.3,0,4.4,0.5,6.3,1.6c1.9,1.1,3.3,2.6,4.4,4.5c1.1,1.9,1.6,4.2,1.6,6.6L140.6,175.8z M122.3,167.2c-1.6,1.6-2.6,3.6-2.8,6.1
			h17.9c-0.2-2.5-1.2-4.5-2.8-6.1c-1.6-1.6-3.7-2.3-6.2-2.3C126,164.9,124,165.7,122.3,167.2z"/>
		<path class="st1" d="M184.2,162.1l-9.6,25.2h-3.2l-8-20.7l-8,20.7h-3.2l-9.5-25.2h3.3l7.9,21.5l8.1-21.5h2.9l8.1,21.5l8-21.5
			H184.2z"/>
		<path class="st1" d="M192.4,186c-2-1.1-3.5-2.6-4.6-4.6c-1.1-2-1.7-4.2-1.7-6.6c0-2.5,0.6-4.7,1.7-6.6c1.1-2,2.7-3.5,4.6-4.6
			s4.1-1.6,6.6-1.6s4.6,0.5,6.6,1.6c2,1.1,3.5,2.6,4.6,4.6c1.1,2,1.7,4.2,1.7,6.6c0,2.5-0.6,4.7-1.7,6.6c-1.1,2-2.6,3.5-4.6,4.6
			c-2,1.1-4.1,1.7-6.6,1.7S194.3,187.1,192.4,186z M203.8,183.4c1.4-0.8,2.5-2,3.3-3.5c0.8-1.5,1.2-3.2,1.2-5.1s-0.4-3.6-1.2-5.1
			s-1.9-2.7-3.3-3.5c-1.4-0.8-3-1.2-4.8-1.2s-3.4,0.4-4.8,1.2c-1.4,0.8-2.5,2-3.4,3.5c-0.8,1.5-1.2,3.2-1.2,5.1s0.4,3.6,1.2,5.1
			c0.8,1.5,1.9,2.7,3.4,3.5c1.4,0.8,3,1.2,4.8,1.2S202.3,184.2,203.8,183.4z"/>
		<path class="st1" d="M222.5,186c-2-1.1-3.5-2.6-4.6-4.6c-1.1-2-1.7-4.2-1.7-6.6c0-2.5,0.6-4.7,1.7-6.6c1.1-2,2.7-3.5,4.6-4.6
			c2-1.1,4.1-1.6,6.6-1.6s4.6,0.5,6.6,1.6s3.5,2.6,4.6,4.6c1.1,2,1.7,4.2,1.7,6.6c0,2.5-0.6,4.7-1.7,6.6c-1.1,2-2.6,3.5-4.6,4.6
			c-2,1.1-4.1,1.7-6.6,1.7S224.4,187.1,222.5,186z M233.9,183.4c1.4-0.8,2.5-2,3.3-3.5c0.8-1.5,1.2-3.2,1.2-5.1s-0.4-3.6-1.2-5.1
			s-1.9-2.7-3.3-3.5c-1.4-0.8-3-1.2-4.8-1.2s-3.4,0.4-4.8,1.2c-1.4,0.8-2.5,2-3.4,3.5s-1.2,3.2-1.2,5.1s0.4,3.6,1.2,5.1
			c0.8,1.5,1.9,2.7,3.4,3.5c1.4,0.8,3,1.2,4.8,1.2S232.4,184.2,233.9,183.4z"/>
		<path class="st1" d="M249.5,153.8h13.7c3.6,0,6.7,0.7,9.4,2.1s4.8,3.4,6.3,6c1.5,2.5,2.3,5.4,2.3,8.7c0,3.3-0.8,6.2-2.3,8.7
			c-1.5,2.5-3.6,4.5-6.3,6s-5.9,2.1-9.4,2.1h-13.7V153.8z M263,184.3c2.9,0,5.5-0.6,7.7-1.8c2.2-1.2,3.9-2.8,5.1-4.8
			c1.2-2.1,1.8-4.4,1.8-7.1c0-2.7-0.6-5.1-1.8-7.1c-1.2-2.1-2.9-3.7-5.1-4.8c-2.2-1.2-4.8-1.8-7.7-1.8h-9.9v27.5H263z"/>
	</g>
</g>
</svg>
